<svg xmlns="http://www.w3.org/2000/svg" version="1.1" xmlns:xlink="http://www.w3.org/1999/xlink" xmlns:svgjs="http://svgjs.com/svgjs" width="512" height="512"><svg id="SvgjsSvg1000" data-name="Layer 1" xmlns="http://www.w3.org/2000/svg" version="1.1" viewBox="0 0 512 512">
  <defs>
    <style>
      .cls-1, .cls-2 {
        stroke: #bf5700;
      }

      .cls-1, .cls-2, .cls-3, .cls-4, .cls-5, .cls-6 {
        stroke-miterlimit: 10;
      }

      .cls-1, .cls-2, .cls-4, .cls-6 {
        fill: #2274a5;
      }

      .cls-1, .cls-6 {
        stroke-width: 11px;
      }

      .cls-2, .cls-4 {
        stroke-width: 16px;
      }

      .cls-3 {
        fill: #19a7ce;
      }

      .cls-3, .cls-5 {
        stroke: #000;
      }

      .cls-4, .cls-6 {
        stroke: #19a7ce;
      }

      .cls-5 {
        fill: #bf5700;
      }
    </style>
  </defs>
  <line class="cls-1" x1="24.5" y1="204.5" x2="276.5" y2="41.5"></line>
  <line class="cls-2" x1="24.5" y1="199.5" x2="228.5" y2="491.5"></line>
  <line class="cls-4" x1="249.6" y1="11.6" x2="468.5" y2="249.5"></line>
  <line class="cls-6" x1="459.5" y1="251.5" x2="210.5" y2="451.5"></line>
  <g>
    <path class="cls-3" d="M127.5,139h57.6c24.4,0,41.8,3.4,52.2,10.1,13.2,8.5,19.7,20.2,19.7,35.3s-2.5,17.1-7.6,23.8c-5,6.8-12.1,11.6-21.2,14.6-9.1,3-23.5,4.5-43.2,4.5h-15.8v62l15.6,14.1h-59.6l17.8-15v-51.4c-1,0-1.8-.1-2.2-.1-6.2,0-12.1,1.3-17.7,4l-1.2-2.3c5.7-3.2,10.9-4.9,15.4-4.9h5.6v-6.4c-2-.3-3.3-.4-4-.4-9.1,0-16.5,2.2-21.9,6.7l-1.3-1.9c5.2-9.6,13.6-14.4,25.1-14.4h2.1v-62.8l-15.6-15.5h.2,0ZM250.5,152.7c5.2,2.6,9.4,7.1,12.6,13.5,3.2,6.5,4.7,13.8,4.7,22,0,18.5-7.2,31.9-21.5,40-10.9,6.2-29.4,9.2-55.6,9.2s-8,0-11-.3v52.9l20.1,23.8h-64.2l-3.5-3.5h60.4l-16.4-19v-57.8c7.4.4,15.3.6,23.7.6,22,0,38.4-3.9,49.1-11.7,10.7-7.8,16-19.7,16-35.8s-1-12.5-3.1-17.4-5.8-10.5-11.3-16.9v.4h0ZM169.3,152.2v64.2h5c.3.1.9,0,1.7,0v-57.2h14.1c10.9,0,18.7,1,23.1,2.9s8.3,5.9,11.5,12c-3.2-4.4-7.1-7.4-11.9-9.2-4.7-1.8-11.4-2.6-20.1-2.6h-13.2v54.1c16.9,0,29.3-2.5,37.2-7.4,7.9-5,11.9-12.7,11.9-23.3s-3.5-20.5-10.6-25.9-18.4-8.1-34-8.1-8.9.2-14.7.5Z"></path>
    <path class="cls-5" d="M350.8,210.1c-.7,1.3-1.1,2.2-1.4,2.6l-7.7,13.7c-2.7,4.9-5.1,10.9-7.4,18.2l-.2.6-1.1-.8-.3-1.5c-2.2-8.7-5.3-14.7-9.4-18s-10.3-5-18.6-5-6.8.2-10.3.5h-1.4v123.5l13.4,12.4h-52.1l16-13.3v-113.4h-8.1c-7.8-.1-13.4,1.4-16.7,4.5s-5.3,8.5-5.9,16.2h-3c.8-8.9,3.1-15.1,6.9-18.6,3.8-3.5,10-5.2,18.6-5.2h6.8c0,.1,1.3.1,1.3.1v-5.6c-3.9-.5-7.6-.7-11.1-.7-9.8,0-16.9,2-21.2,6s-6.7,10.7-7.2,20.2h-1.4c-3.3-10.6-8.3-22.3-15.2-35.3l-.7-1.1h137.4ZM327.6,235.1c-5.9-3.8-12.7-5.7-20.5-5.7s-3.6.1-5.5.3l.5,114.5,18.1,21.4h-58.2l-2.6-3.1h54.6l-15.3-17.4v-118.8h6.2c7.4-.1,12.6.5,15.7,1.7s5.5,3.5,7.1,7h-.1ZM358,217.3c-5.2,6.7-10.8,17.8-16.5,33.3l-.5,1.1-2.5-2.2.3-1c5.6-15.7,11.1-26.7,16.3-32.8l.6-.7,2.3,2.3h0Z"></path>
  </g>
</svg><style>@media (prefers-color-scheme: light) { :root { filter: none; } }
</style></svg>